<svg width="26" height="26" viewBox="0 0 26 26" fill="none" xmlns="http://www.w3.org/2000/svg">
<path fill-rule="evenodd" clip-rule="evenodd" d="M10.1588 22.4498V22.4498C8.41998 22.4498 6.76728 21.7505 5.50518 20.481C2.99778 17.9579 2.89488 13.9574 5.27523 11.5623L13.0305 3.76081C13.838 2.94811 14.9279 2.49976 16.0986 2.49976C17.3513 2.49976 18.542 3.00271 19.4502 3.91621C21.2573 5.73376 21.3266 8.62231 19.6035 10.3548L11.8388 18.1553C11.3358 18.6624 10.6586 18.9407 9.93198 18.9407V18.9407C9.16443 18.9407 8.43678 18.6341 7.88448 18.0786C6.77883 16.9646 6.74418 15.189 7.80783 14.118L14.9741 6.92026C15.3836 6.50866 16.0472 6.50656 16.4588 6.91606C16.8693 7.32556 16.8714 7.99021 16.4619 8.40076L9.29673 15.5996C9.04473 15.8537 9.07938 16.302 9.37443 16.5981C9.52773 16.7525 9.73143 16.8407 9.93198 16.8407V16.8407C10.0475 16.8407 10.2134 16.8123 10.3499 16.6748L18.1146 8.87431C19.025 7.95766 18.9567 6.39841 17.9613 5.39671C17.009 4.43911 15.393 4.36351 14.5194 5.24131L6.76413 13.0428C5.19543 14.621 5.29833 17.2943 6.99513 19.0005C7.85928 19.871 8.98278 20.3498 10.1588 20.3498C11.2098 20.3498 12.1842 19.9529 12.9003 19.2326L20.6567 11.4311C21.0651 11.0205 21.7298 11.0174 22.1414 11.4269C22.5519 11.8364 22.554 12.5 22.1456 12.9116L14.3892 20.7131C13.2762 21.8324 11.7737 22.4498 10.1588 22.4498" fill="#231F20"/>
<mask id="mask0_833_394" style="mask-type:alpha" maskUnits="userSpaceOnUse" x="3" y="2" width="20" height="21">
<path fill-rule="evenodd" clip-rule="evenodd" d="M10.1588 22.4498V22.4498C8.41998 22.4498 6.76728 21.7505 5.50518 20.481C2.99778 17.9579 2.89488 13.9574 5.27523 11.5623L13.0305 3.76081C13.838 2.94811 14.9279 2.49976 16.0986 2.49976C17.3513 2.49976 18.542 3.00271 19.4502 3.91621C21.2573 5.73376 21.3266 8.62231 19.6035 10.3548L11.8388 18.1553C11.3358 18.6624 10.6586 18.9407 9.93198 18.9407V18.9407C9.16443 18.9407 8.43678 18.6341 7.88448 18.0786C6.77883 16.9646 6.74418 15.189 7.80783 14.118L14.9741 6.92026C15.3836 6.50866 16.0472 6.50656 16.4588 6.91606C16.8693 7.32556 16.8714 7.99021 16.4619 8.40076L9.29673 15.5996C9.04473 15.8537 9.07938 16.302 9.37443 16.5981C9.52773 16.7525 9.73143 16.8407 9.93198 16.8407V16.8407C10.0475 16.8407 10.2134 16.8123 10.3499 16.6748L18.1146 8.87431C19.025 7.95766 18.9567 6.39841 17.9613 5.39671C17.009 4.43911 15.393 4.36351 14.5194 5.24131L6.76413 13.0428C5.19543 14.621 5.29833 17.2943 6.99513 19.0005C7.85928 19.871 8.98278 20.3498 10.1588 20.3498C11.2098 20.3498 12.1842 19.9529 12.9003 19.2326L20.6567 11.4311C21.0651 11.0205 21.7298 11.0174 22.1414 11.4269C22.5519 11.8364 22.554 12.5 22.1456 12.9116L14.3892 20.7131C13.2762 21.8324 11.7737 22.4498 10.1588 22.4498" fill="white"/>
</mask>
<g mask="url(#mask0_833_394)">
<rect x="0.400391" y="0.399902" width="25.2" height="25.2" fill="#416BE7"/>
</g>
</svg>
