<svg width="18" height="14" viewBox="0 0 18 14" fill="none" xmlns="http://www.w3.org/2000/svg">
<path d="M15.2382 1.16134C14.071 0.61478 12.8394 0.224691 11.5741 0.000797362C11.5626 -0.00117262 11.5508 0.000528786 11.5404 0.00566772C11.5299 0.0108066 11.5212 0.0191307 11.5156 0.0294952C11.3569 0.316474 11.1814 0.691843 11.0588 0.985709C9.6949 0.774503 8.30754 0.774503 6.94362 0.985709C6.80683 0.658347 6.65209 0.339103 6.48012 0.0294952C6.47435 0.0192442 6.46567 0.0110161 6.45523 0.00589364C6.44479 0.000771228 6.43307 -0.00100541 6.42162 0.000797362C5.15601 0.223493 3.92415 0.613785 2.75754 1.16134C2.74755 1.16523 2.7392 1.17253 2.73391 1.182C0.400686 4.7394 -0.239432 8.20955 0.0744392 11.6361C0.0755642 11.6521 0.0856891 11.6682 0.098064 11.6785C1.45674 12.7055 2.97645 13.4896 4.59239 13.9973C4.6038 14.001 4.61606 14.0009 4.62739 13.997C4.63872 13.993 4.64853 13.9855 4.65539 13.9755C5.00189 13.4934 5.31013 12.9849 5.57563 12.4499C5.58117 12.4389 5.58306 12.4264 5.58103 12.4142C5.57901 12.402 5.57316 12.3908 5.56438 12.3822C5.55857 12.3766 5.55167 12.3723 5.54413 12.3696C5.05944 12.1795 4.59002 11.9512 4.14015 11.6866C4.12758 11.6793 4.11824 11.6674 4.11405 11.6533C4.10986 11.6392 4.11115 11.624 4.11765 11.6108C4.12147 11.6023 4.12726 11.5948 4.13452 11.589C4.22902 11.5167 4.32352 11.4409 4.41352 11.3652C4.42147 11.3586 4.43101 11.3545 4.44111 11.353C4.45122 11.3516 4.46151 11.353 4.47089 11.3571C7.41724 12.73 10.6066 12.73 13.5169 11.3571C13.5266 11.3528 13.5373 11.3513 13.5478 11.3527C13.5583 11.3541 13.5683 11.3584 13.5765 11.3652C13.6665 11.4409 13.761 11.5167 13.8555 11.589C13.8632 11.5947 13.8694 11.6023 13.8734 11.611C13.8775 11.6197 13.8795 11.6294 13.879 11.639C13.8786 11.6487 13.8758 11.6581 13.8709 11.6664C13.866 11.6747 13.8592 11.6816 13.851 11.6866C13.4022 11.9536 12.9322 12.1817 12.4459 12.3684C12.4382 12.3713 12.4311 12.3759 12.4253 12.3818C12.4195 12.3878 12.415 12.395 12.4122 12.4029C12.4096 12.4106 12.4085 12.4187 12.4091 12.4268C12.4097 12.4349 12.4119 12.4428 12.4156 12.4499C12.6856 12.9837 12.9949 13.4934 13.3347 13.9755C13.3415 13.9855 13.3513 13.993 13.3627 13.997C13.374 14.0009 13.3863 14.001 13.3977 13.9973C15.0163 13.4911 16.5385 12.707 17.8988 11.6785C17.9056 11.6737 17.9112 11.6674 17.9153 11.6601C17.9194 11.6527 17.9218 11.6445 17.9224 11.6361C18.2981 7.67462 17.2935 4.23316 15.2607 1.18315C15.2586 1.17811 15.2555 1.17357 15.2517 1.16981C15.2478 1.16606 15.2432 1.16317 15.2382 1.16134ZM6.0155 9.54916C5.12789 9.54916 4.39777 8.71807 4.39777 7.69872C4.39777 6.67823 5.11439 5.84713 6.0155 5.84713C6.92337 5.84713 7.64673 6.68511 7.63323 7.69872C7.63323 8.71807 6.91662 9.54916 6.0155 9.54916ZM11.9959 9.54916C11.1094 9.54916 10.3782 8.71807 10.3782 7.69872C10.3782 6.67823 11.0948 5.84713 11.9959 5.84713C12.9038 5.84713 13.6283 6.68511 13.6137 7.69872C13.6137 8.71807 12.9038 9.54916 11.9959 9.54916Z" fill="#F8F8F8"/>
</svg>
