<svg width="20" height="16" viewBox="0 0 20 16" fill="none" xmlns="http://www.w3.org/2000/svg">
<mask id="path-1-inside-1_333_332" fill="white">
<path d="M1.5 16C1.1 16 0.75 15.85 0.45 15.55C0.15 15.25 0 14.9 0 14.5V1.5C0 1.1 0.15 0.75 0.45 0.45C0.75 0.15 1.1 0 1.5 0H18.5C18.9 0 19.25 0.15 19.55 0.45C19.85 0.75 20 1.1 20 1.5V14.5C20 14.9 19.85 15.25 19.55 15.55C19.25 15.85 18.9 16 18.5 16H1.5ZM10 8.45L1.5 2.875V14.5H18.5V2.875L10 8.45ZM10 6.95L18.4 1.5H1.625L10 6.95ZM1.5 2.875V1.5V2.875V14.5V2.875Z"/>
</mask>
<path d="M1.5 16C1.1 16 0.75 15.85 0.45 15.55C0.15 15.25 0 14.9 0 14.5V1.5C0 1.1 0.15 0.75 0.45 0.45C0.75 0.15 1.1 0 1.5 0H18.5C18.9 0 19.25 0.15 19.55 0.45C19.85 0.75 20 1.1 20 1.5V14.5C20 14.9 19.85 15.25 19.55 15.55C19.25 15.85 18.9 16 18.5 16H1.5ZM10 8.45L1.5 2.875V14.5H18.5V2.875L10 8.45ZM10 6.95L18.4 1.5H1.625L10 6.95ZM1.5 2.875V1.5V2.875V14.5V2.875Z" fill="#426CE8"/>
<path d="M10 8.45L8.90312 10.1224L10 10.8418L11.0969 10.1224L10 8.45ZM1.5 2.875L2.59688 1.20262L-0.5 -0.828569V2.875H1.5ZM1.5 14.5H-0.5V16.5H1.5V14.5ZM18.5 14.5V16.5H20.5V14.5H18.5ZM18.5 2.875H20.5V-0.828569L17.4031 1.20262L18.5 2.875ZM10 6.95L8.90914 8.62632L9.99838 9.33513L11.0886 8.6278L10 6.95ZM18.4 1.5L19.4886 3.1778L25.1571 -0.5H18.4V1.5ZM1.625 1.5V-0.5H-5.11524L0.534144 3.17632L1.625 1.5ZM1.5 14C1.55694 14 1.63891 14.0122 1.72534 14.0492C1.80946 14.0853 1.85481 14.1264 1.86421 14.1358L-0.964213 16.9642C-0.314393 17.614 0.53489 18 1.5 18V14ZM1.86421 14.1358C1.87362 14.1452 1.91474 14.1905 1.95079 14.2747C1.98783 14.3611 2 14.4431 2 14.5H-2C-2 15.4651 -1.61403 16.3144 -0.964213 16.9642L1.86421 14.1358ZM2 14.5V1.5H-2V14.5H2ZM2 1.5C2 1.55694 1.98783 1.6389 1.95079 1.72534C1.91474 1.80946 1.87362 1.85481 1.86421 1.86421L-0.964213 -0.964214C-1.61404 -0.314392 -2 0.534893 -2 1.5H2ZM1.86421 1.86421C1.85481 1.87362 1.80946 1.91474 1.72534 1.95079C1.6389 1.98783 1.55694 2 1.5 2V-2C0.534894 -2 -0.314391 -1.61404 -0.964213 -0.964214L1.86421 1.86421ZM1.5 2H18.5V-2H1.5V2ZM18.5 2C18.4431 2 18.3611 1.98783 18.2747 1.95079C18.1905 1.91474 18.1452 1.87362 18.1358 1.86421L20.9642 -0.964214C20.3144 -1.61404 19.4651 -2 18.5 -2V2ZM18.1358 1.86421C18.1264 1.85481 18.0853 1.80946 18.0492 1.72534C18.0122 1.63891 18 1.55694 18 1.5H22C22 0.534891 21.614 -0.314393 20.9642 -0.964214L18.1358 1.86421ZM18 1.5V14.5H22V1.5H18ZM18 14.5C18 14.4431 18.0122 14.3611 18.0492 14.2747C18.0853 14.1905 18.1264 14.1452 18.1358 14.1358L20.9642 16.9642C21.614 16.3144 22 15.4651 22 14.5H18ZM18.1358 14.1358C18.1452 14.1264 18.1905 14.0853 18.2747 14.0492C18.3611 14.0122 18.4431 14 18.5 14V18C19.4651 18 20.3144 17.614 20.9642 16.9642L18.1358 14.1358ZM18.5 14H1.5V18H18.5V14ZM11.0969 6.77762L2.59688 1.20262L0.403117 4.54738L8.90312 10.1224L11.0969 6.77762ZM-0.5 2.875V14.5H3.5V2.875H-0.5ZM1.5 16.5H18.5V12.5H1.5V16.5ZM20.5 14.5V2.875H16.5V14.5H20.5ZM17.4031 1.20262L8.90312 6.77762L11.0969 10.1224L19.5969 4.54738L17.4031 1.20262ZM11.0886 8.6278L19.4886 3.1778L17.3114 -0.177799L8.91143 5.2722L11.0886 8.6278ZM18.4 -0.5H1.625V3.5H18.4V-0.5ZM0.534144 3.17632L8.90914 8.62632L11.0909 5.27368L2.71586 -0.176315L0.534144 3.17632ZM3.5 2.875V1.5H-0.5V2.875H3.5ZM-0.5 1.5V2.875H3.5V1.5H-0.5ZM-0.5 2.875V14.5H3.5V2.875H-0.5ZM3.5 14.5V2.875H-0.5V14.5H3.5Z" fill="#426CE8" mask="url(#path-1-inside-1_333_332)"/>
</svg>
