<svg width="22" height="22" viewBox="0 0 22 22" fill="none" xmlns="http://www.w3.org/2000/svg">
<path d="M19.8889 1H2.11111C1.44444 1 1 1.44444 1 2.11111V19.8889C1 20.4444 1.44444 21 2.11111 21H11.6667V13.2222H9.11111V10.2222H11.6667V8C11.6667 5.44445 13.2222 4 15.5556 4C16.6667 4 17.5556 4.11111 17.8889 4.11111V6.77778H16.3333C15.1111 6.77778 14.8889 7.33333 14.8889 8.22222V10.1111H17.8889L17.4444 13.2222H14.8889V21H19.8889C20.4444 21 21 20.5556 21 19.8889V2.11111C21 1.44444 20.5556 1 19.8889 1Z" fill="white"/>
</svg>
