<svg width="31" height="31" viewBox="0 0 31 31" fill="none" xmlns="http://www.w3.org/2000/svg">
<g clip-path="url(#clip0_809_371)">
<path d="M25.9751 1.78436e-05H11.8037V19.1164H30.9351V4.94496C30.9349 4.29438 30.8063 3.65023 30.5568 3.04941C30.3073 2.44858 29.9417 1.90288 29.481 1.44355C29.0202 0.984215 28.4734 0.620278 27.8718 0.372575C27.2703 0.124873 26.6257 -0.00172951 25.9751 1.78436e-05Z" fill="black"/>
<path d="M7.38863 0H4.94671C3.63476 0 2.37655 0.52117 1.44886 1.44886C0.52117 2.37655 0 3.63476 0 4.94671L0 7.38863H7.38863V0Z" fill="black"/>
<path d="M0 11.8057H7.38863V19.1943H0V11.8057Z" fill="black"/>
<path d="M23.6113 30.9371H26.0532C26.704 30.9371 27.3483 30.8087 27.9493 30.5593C28.5504 30.3099 29.0963 29.9443 29.5558 29.4836C30.0153 29.0228 30.3794 28.4759 30.6272 27.8742C30.875 27.2725 31.0017 26.6279 31 25.9771V23.6114H23.6113V30.9371Z" fill="black"/>
<path d="M11.8057 23.6114H19.1943V31H11.8057V23.6114Z" fill="black"/>
<path d="M0 23.6114V26.0533C0 26.7029 0.127951 27.3462 0.376546 27.9463C0.625142 28.5465 0.989514 29.0918 1.44886 29.5512C1.9082 30.0105 2.45353 30.3749 3.05369 30.6235C3.65385 30.8721 4.2971 31 4.94671 31H7.38863V23.6114H0Z" fill="black"/>
</g>
<defs>
<clipPath id="clip0_809_371">
<rect width="31" height="31" fill="white"/>
</clipPath>
</defs>
</svg>
