<svg width="18" height="23" viewBox="0 0 18 23" fill="none" xmlns="http://www.w3.org/2000/svg">
<path d="M9 0C10.4812 0 11.7422 0.506548 12.7828 1.51964C13.8234 2.53274 14.3438 3.76032 14.3438 5.20238V7.83095H16.3125C16.7812 7.83095 17.1797 7.99067 17.5078 8.31012C17.8359 8.62956 18 9.01746 18 9.47381V21.3571C18 21.8135 17.8359 22.2014 17.5078 22.5208C17.1797 22.8403 16.7812 23 16.3125 23H1.6875C1.21875 23 0.820312 22.8403 0.492188 22.5208C0.164063 22.2014 0 21.8135 0 21.3571V9.47381C0 9.01746 0.164063 8.62956 0.492188 8.31012C0.820312 7.99067 1.21875 7.83095 1.6875 7.83095H3.65625V5.20238C3.65625 3.76032 4.17656 2.53274 5.21719 1.51964C6.25781 0.506548 7.51875 0 9 0ZM9 1.64286C7.9875 1.64286 7.125 1.98968 6.4125 2.68333C5.7 3.37698 5.34375 4.21667 5.34375 5.20238V7.83095H12.6562V5.20238C12.6562 4.21667 12.3 3.37698 11.5875 2.68333C10.875 1.98968 10.0125 1.64286 9 1.64286ZM1.6875 21.3571H16.3125V9.47381H1.6875V21.3571ZM9 13.3071C8.4 13.3071 7.88906 13.5308 7.46719 13.978C7.04531 14.4252 6.83437 14.9226 6.83437 15.4702C6.83437 16.0361 7.04531 16.5198 7.46719 16.9214C7.88906 17.323 8.4 17.5238 9 17.5238C9.6 17.5238 10.1109 17.323 10.5328 16.9214C10.9547 16.5198 11.1656 16.0361 11.1656 15.4702C11.1656 14.9226 10.9547 14.4252 10.5328 13.978C10.1109 13.5308 9.6 13.3071 9 13.3071ZM1.6875 9.47381V21.3571V9.47381Z" fill="#426CE8"/>
</svg>
