<svg width="69" height="52" viewBox="0 0 69 52" fill="none" xmlns="http://www.w3.org/2000/svg">
<path d="M31.9834 3.77553L27.463 0C10.4449 9.70852 2.46761 20.7654 0.340347 33.1708C-1.2551 43.4186 2.73352 51.5091 12.838 51.5091C20.0176 51.5091 26.9312 46.6548 28.5266 38.5644C29.8562 29.1255 24.538 23.4622 17.8903 22.1138C20.5494 12.9447 31.7175 3.77553 31.9834 3.77553ZM54.8515 21.5745C57.7765 12.675 68.4128 3.77553 68.6788 3.77553L64.1583 0C47.1402 9.70852 39.1629 20.7654 37.0357 33.1708C35.4402 43.4186 39.4288 51.5091 49.5334 51.5091C56.7129 51.5091 63.6265 46.6548 64.956 38.5644C66.5515 29.1255 61.4992 22.9229 54.8515 21.5745Z" fill="#426CE8"/>
</svg>
