<svg width="19" height="19" viewBox="0 0 19 19" fill="none" xmlns="http://www.w3.org/2000/svg">
<path fill-rule="evenodd" clip-rule="evenodd" d="M0.791626 2.24683C0.791626 1.86092 0.944929 1.49082 1.21781 1.21793C1.49069 0.945053 1.8608 0.79175 2.24671 0.79175H16.7516C16.9429 0.791438 17.1323 0.82885 17.3091 0.901844C17.4858 0.974839 17.6465 1.08198 17.7818 1.21714C17.9171 1.3523 18.0244 1.51282 18.0976 1.68951C18.1708 1.8662 18.2084 2.05559 18.2083 2.24683V16.7517C18.2085 16.943 18.171 17.1325 18.0979 17.3093C18.0248 17.486 17.9176 17.6467 17.7824 17.782C17.6472 17.9172 17.4866 18.0246 17.3099 18.0977C17.1331 18.1709 16.9437 18.2085 16.7524 18.2084H2.24671C2.05556 18.2084 1.86628 18.1708 1.68969 18.0976C1.5131 18.0244 1.35266 17.9172 1.21753 17.782C1.0824 17.6468 0.975239 17.4862 0.902161 17.3096C0.829082 17.133 0.791522 16.9437 0.791626 16.7525V2.24683ZM7.68546 7.43225H10.0438V8.61658C10.3843 7.93575 11.2551 7.323 12.5637 7.323C15.0725 7.323 15.667 8.67912 15.667 11.1673V15.7764H13.1282V11.7342C13.1282 10.3171 12.7878 9.5175 11.9233 9.5175C10.7239 9.5175 10.2251 10.3796 10.2251 11.7342V15.7764H7.68546V7.43225ZM3.33129 15.668H5.87096V7.323H3.33129V15.6672V15.668ZM6.23434 4.60125C6.23912 4.8187 6.20043 5.03491 6.12052 5.23721C6.04062 5.4395 5.92111 5.62379 5.76902 5.77927C5.61692 5.93476 5.4353 6.05829 5.23482 6.14263C5.03434 6.22697 4.81902 6.27041 4.60152 6.27041C4.38402 6.27041 4.16871 6.22697 3.96823 6.14263C3.76774 6.05829 3.58612 5.93476 3.43403 5.77927C3.28193 5.62379 3.16243 5.4395 3.08252 5.23721C3.00261 5.03491 2.96392 4.8187 2.96871 4.60125C2.97811 4.17443 3.15426 3.76825 3.45945 3.46971C3.76464 3.17117 4.1746 3.004 4.60152 3.004C5.02845 3.004 5.4384 3.17117 5.74359 3.46971C6.04878 3.76825 6.22494 4.17443 6.23434 4.60125Z" fill="#426CE8"/>
</svg>
