<svg width="22" height="22" viewBox="0 0 22 22" fill="none" xmlns="http://www.w3.org/2000/svg">
<path d="M3.17895 2.19995H18.832C19.371 2.19995 19.7999 2.62895 19.7999 3.16795V18.832C19.7999 19.36 19.371 19.7999 18.832 19.7999H14.344V12.98H16.6319L16.9729 10.329H14.344V8.63495C14.344 7.86495 14.5639 7.33695 15.6639 7.33695H17.0719V4.96095C16.83 4.92795 15.9939 4.86195 15.0259 4.86195C12.9909 4.86195 11.605 6.09395 11.605 8.37095V10.329H9.30595V12.98H11.605V19.7999H3.17895C2.9212 19.8 2.67384 19.6983 2.49055 19.5171C2.30727 19.3359 2.20285 19.0897 2.19995 18.832V3.16795C2.19995 2.62895 2.63995 2.19995 3.17895 2.19995Z" fill="#426CE8"/>
</svg>
