<svg width="38" height="38" viewBox="0 0 38 38" fill="none" xmlns="http://www.w3.org/2000/svg">
<g clip-path="url(#clip0_809_368)">
<path d="M19.1298 36.4119C19.5288 36.4119 19.8523 36.7319 19.8523 37.1265C19.8523 37.5212 19.5288 37.8411 19.1298 37.8411C18.7308 37.8411 18.4073 37.5212 18.4073 37.1265C18.4073 36.7319 18.7308 36.4119 19.1298 36.4119ZM18.3449 2.27601C18.698 2.30516 18.9831 2.57271 19.0309 2.91959L19.8903 9.16355C20.1789 11.2264 22.6669 12.1203 24.2027 10.7184L32.8128 2.88163C33.0206 2.6926 33.344 2.7057 33.5354 2.9109C33.7109 3.09917 33.7162 3.3874 33.5476 3.5818L26.0395 12.2426C24.6573 13.8342 25.6771 16.3195 27.7842 16.4969L34.4089 17.1356C34.7388 17.1673 34.9802 17.4574 34.948 17.7834C34.9215 18.0522 34.7144 18.2694 34.4443 18.3115L27.4831 19.3985C25.4621 19.674 24.5468 22.0674 25.8614 23.6222L28.3086 26.5073C28.5057 26.7397 28.4748 27.086 28.2395 27.2808C28.0403 27.4459 27.7517 27.4523 27.5451 27.2962L24.5283 25.0179C22.9003 23.7936 20.5537 24.8342 20.3817 26.8604L19.7169 34.7626C19.6894 35.089 19.3994 35.3316 19.069 35.3044C18.7886 35.2814 18.562 35.0691 18.524 34.7936L17.4698 27.1604C17.1873 25.0975 14.6993 24.2037 13.1573 25.6055L3.99787 33.9458C3.80827 34.1184 3.51292 34.1064 3.33819 33.9192C3.17787 33.7473 3.173 33.4842 3.32684 33.3066L11.3207 24.0814C12.7029 22.4898 11.6892 20.0044 9.58208 19.827L2.95585 19.1883C2.62591 19.1565 2.38455 18.8664 2.41674 18.5404C2.44329 18.2716 2.65036 18.0545 2.92039 18.0122L9.87696 16.9255C11.8981 16.65 12.8195 14.2566 11.505 12.7017L9.83904 10.7378C9.59454 10.4496 9.63285 10.0201 9.92461 9.77862C10.1718 9.57387 10.5298 9.56604 10.786 9.75969L12.8318 11.3061C14.4598 12.5303 16.8063 11.4898 16.9784 9.4636L17.5287 2.95801C17.5634 2.547 17.9289 2.24166 18.3449 2.27601ZM0.722509 17.8101C1.12154 17.8101 1.44502 18.1301 1.44502 18.5248C1.44502 18.9194 1.12154 19.2394 0.722509 19.2394C0.323478 19.2394 0 18.9194 0 18.5248C0 18.1301 0.323478 17.8101 0.722509 17.8101ZM36.9591 17.0846C37.3581 17.0846 37.6816 17.4045 37.6816 17.7992C37.6816 18.1939 37.3581 18.5138 36.9591 18.5138C36.5601 18.5138 36.2366 18.1939 36.2366 17.7992C36.2366 17.4045 36.5601 17.0846 36.9591 17.0846ZM18.2406 0C18.6396 0 18.9631 0.319939 18.9631 0.714605C18.9631 1.10927 18.6396 1.42921 18.2406 1.42921C17.8415 1.42921 17.5181 1.10927 17.5181 0.714605C17.5181 0.319939 17.8415 0 18.2406 0Z" fill="url(#paint0_linear_809_368)"/>
<path d="M18.6741 24.9122C22.4434 24.9122 25.499 21.89 25.499 18.1619C25.499 14.4339 22.4434 11.4117 18.6741 11.4117C14.9048 11.4117 11.8491 14.4339 11.8491 18.1619C11.8491 21.89 14.9048 24.9122 18.6741 24.9122Z" fill="url(#paint1_radial_809_368)"/>
</g>
<defs>
<linearGradient id="paint0_linear_809_368" x1="4.92355" y1="6.0192" x2="26.5321" y2="25.5811" gradientUnits="userSpaceOnUse">
<stop stop-color="#FFC10B"/>
<stop offset="1" stop-color="#FB3F2E"/>
</linearGradient>
<radialGradient id="paint1_radial_809_368" cx="0" cy="0" r="1" gradientUnits="userSpaceOnUse" gradientTransform="translate(17.1155 15.6699) rotate(67.5196) scale(9.92256 10.019)">
<stop stop-color="#FFC10B"/>
<stop offset="1" stop-color="#FB3F2E"/>
</radialGradient>
<clipPath id="clip0_809_368">
<rect width="38" height="38" fill="white"/>
</clipPath>
</defs>
</svg>
